<?xml version="1.0" standalone="no"?>
<!DOCTYPE svg PUBLIC "-//W3C//DTD SVG 20010904//EN"
 "http://www.w3.org/TR/2001/REC-SVG-20010904/DTD/svg10.dtd">
<svg version="1.0" xmlns="http://www.w3.org/2000/svg"
 width="1024.000000pt" height="1024.000000pt" viewBox="0 0 1024.000000 1024.000000"
 preserveAspectRatio="xMidYMid meet">

<g transform="translate(0.000000,1024.000000) scale(0.100000,-0.100000)"
fill="#000000" stroke="none">
<path d="M4835 8353 c-9 -59 -18 -77 -66 -130 -22 -24 -39 -48 -39 -55 0 -7
-12 -35 -25 -63 -14 -27 -25 -56 -25 -62 0 -10 43 -13 180 -13 l180 0 0 -101
0 -100 -310 3 -310 3 0 -98 c0 -84 -2 -99 -17 -104 -23 -8 -71 -51 -261 -232
-84 -80 -163 -152 -175 -159 -12 -8 -60 -52 -107 -97 -47 -46 -94 -86 -105
-89 -19 -6 -20 -12 -17 -105 l4 -99 -91 -7 -90 -8 -66 -82 c-57 -72 -70 -83
-104 -89 -21 -3 -52 -3 -68 0 l-30 6 -6 -204 c-4 -111 -7 -296 -7 -410 l0
-208 125 0 125 0 1 150 c1 83 3 155 4 160 1 6 3 74 4 153 l1 143 33 12 c17 7
75 51 127 98 52 48 120 106 150 131 30 24 80 68 110 98 30 30 63 55 73 55 10
0 20 6 23 14 3 8 33 38 67 66 34 29 123 111 197 183 l135 131 79 7 c75 7 81 9
115 46 20 21 69 66 108 100 66 58 76 64 140 73 37 6 84 13 103 16 23 4 62 -3
114 -20 43 -14 85 -26 93 -26 8 0 12 -4 8 -9 -5 -10 35 -47 154 -140 l64 -51
216 0 c191 0 310 -7 418 -25 18 -3 53 -21 77 -40 27 -20 72 -41 111 -52 55
-14 65 -21 65 -39 0 -52 -13 -53 -560 -53 l-445 -1 -3 -91 -4 -90 346 2 c279
1 350 -1 365 -12 91 -66 142 -109 160 -137 12 -18 33 -37 47 -42 27 -11 207
-13 260 -4 l31 6 9 196 c5 108 8 236 6 285 l-3 87 -118 0 -117 0 -12 58 c-13
59 -33 91 -69 110 -14 8 -127 14 -313 19 l-292 6 6 101 c3 56 6 105 6 109 0 4
115 6 255 5 140 -2 255 -1 255 2 -1 14 -29 93 -29 82 -1 -7 -12 -3 -28 12 -16
13 -59 45 -98 72 -81 55 -148 110 -217 177 -41 40 -54 47 -87 47 -24 0 -41 5
-44 14 -7 16 -156 146 -166 144 -3 -1 -20 2 -38 6 -23 5 -41 22 -71 66 -22 33
-43 75 -46 94 l-7 35 -167 -2 c-92 0 -195 3 -228 7 l-61 8 -8 -49z"/>
<path d="M3130 7744 l0 -91 103 3 c56 1 218 2 360 3 l257 1 0 88 0 88 -360 0
-360 -1 0 -91z"/>
<path d="M6283 7622 l-143 -3 0 -68 0 -68 48 -7 c43 -6 546 -24 690 -26 40 0
61 4 57 10 -4 6 6 11 22 11 17 1 21 3 11 6 -10 2 -18 12 -19 21 0 14 -2 13 -9
-3 -6 -14 -9 -3 -9 40 -1 33 -6 67 -11 75 -8 13 -47 15 -252 15 -134 0 -307
-1 -385 -3z"/>
<path d="M3057 7032 l-368 -2 2 -78 c1 -42 4 -82 6 -87 2 -8 126 -10 381 -9
l377 2 3 89 c2 80 1 89 -15 88 -10 0 -184 -1 -386 -3z"/>
<path d="M6698 6581 c6 -97 0 -95 294 -99 155 -2 254 0 261 6 7 6 11 28 11 49
-1 21 -2 53 -3 71 l-1 32 -282 0 -283 0 3 -59z"/>
<path d="M4360 6453 l-265 -3 0 -295 0 -295 303 0 302 0 0 300 0 300 -37 -2
c-21 -2 -157 -4 -303 -5z"/>
<path d="M5318 6158 l-3 -298 310 2 310 3 -2 292 -1 293 -306 3 -305 4 -3
-299z"/>
<path d="M6600 6430 l-125 -5 0 -205 c0 -113 -4 -259 -9 -326 l-8 -121 68 -6
c38 -4 104 -7 147 -7 l77 0 -6 39 c-3 21 -7 174 -8 340 0 165 -3 300 -6 299
-3 -1 -61 -5 -130 -8z"/>
<path d="M2906 5832 c-266 -2 -297 -4 -292 -18 3 -9 6 -47 6 -86 l0 -71 307 7
c224 4 311 10 320 19 6 6 16 42 21 79 l8 66 -35 4 c-20 1 -170 2 -335 0z"/>
<path d="M3804 5833 l-101 -4 -7 -76 c-3 -42 -4 -78 -2 -80 2 -2 51 -7 110
-10 l106 -6 0 30 c0 17 3 58 6 92 4 34 3 60 -2 59 -5 -1 -54 -4 -110 -5z"/>
<path d="M5960 5561 l0 -88 170 5 c121 3 170 2 170 -6 0 -6 -24 -29 -54 -51
-29 -22 -77 -63 -107 -93 l-54 -53 155 -5 c85 -3 190 -4 232 -2 l78 4 -3 100
-2 100 275 5 c151 2 281 6 288 8 13 5 17 101 5 144 l-6 23 -121 -6 c-67 -3
-197 -6 -289 -6 -120 0 -166 -3 -161 -11 4 -7 0 -9 -13 -5 -42 13 -227 25
-390 26 l-173 0 0 -89z"/>
<path d="M3315 5502 c0 -143 4 -154 67 -203 24 -19 151 -137 283 -264 133
-126 304 -287 380 -357 235 -214 733 -715 875 -880 l65 -76 45 41 c25 23 46
44 48 47 15 34 839 859 957 960 79 67 281 277 274 285 -2 2 -24 -1 -49 -5 -25
-5 -108 -12 -185 -16 l-140 -7 -91 -74 c-97 -78 -611 -583 -754 -740 -46 -51
-87 -93 -91 -93 -4 0 -199 190 -433 423 -905 898 -914 907 -939 907 -24 0 -25
4 -31 78 -3 42 -6 83 -7 90 -2 9 -37 12 -138 12 l-136 0 0 -128z"/>
<path d="M5320 5169 l0 -92 243 7 c133 4 292 11 352 14 l110 7 0 75 0 75 -352
3 -353 2 0 -91z"/>
<path d="M3080 4825 l0 -85 68 0 c37 0 138 3 224 7 l157 6 -2 78 -2 79 -222 0
-223 0 0 -85z"/>
<path d="M6575 4900 c-82 -3 -144 -7 -137 -8 10 -2 10 -5 0 -16 -7 -8 -16 -12
-19 -10 -8 5 -22 -96 -15 -104 7 -6 369 -21 544 -21 l123 -1 -3 83 -3 82 -170
1 c-93 0 -237 -3 -320 -6z"/>
<path d="M3511 4668 c-46 -63 -75 -90 -161 -150 -36 -25 -110 -90 -164 -144
l-99 -99 209 -5 c115 -3 212 -3 217 0 4 4 2 52 -4 108 -6 57 -9 108 -6 115 4
10 28 11 99 6 104 -8 140 -22 239 -92 31 -22 62 -38 68 -36 7 3 -10 35 -41 77
-29 39 -66 91 -81 114 -15 24 -46 69 -68 101 l-41 57 -64 0 -63 0 -40 -52z"/>
<path d="M6160 4632 c0 -105 -19 -318 -31 -351 l-10 -24 -144 6 -145 6 0 -88
0 -88 33 -7 c17 -4 264 -6 547 -5 l515 1 3 -102 c2 -87 5 -101 18 -96 9 3 175
6 370 6 213 0 354 4 354 9 0 6 -42 41 -92 80 -51 39 -101 78 -110 87 -14 14
-30 15 -85 10 -37 -3 -73 -3 -79 1 -12 8 -60 151 -56 166 1 4 -4 7 -11 8 -6 0
-3 4 8 9 11 5 -50 6 -143 3 l-162 -6 -83 79 c-96 93 -141 129 -219 172 -70 40
-120 91 -150 154 -12 26 -27 49 -33 49 -5 1 -74 2 -152 3 l-143 1 0 -83z"/>
<path d="M2831 4242 c9 -14 5 -26 -20 -64 -17 -25 -31 -50 -31 -55 0 -6 -8
-17 -18 -26 -15 -13 -39 -17 -115 -17 -91 0 -98 -2 -129 -28 -30 -25 -71 -57
-186 -146 l-37 -29 64 7 c35 3 213 6 395 6 l331 0 0 105 0 105 -36 0 c-45 0
-53 8 -29 29 13 10 22 35 27 66 3 28 11 53 17 57 6 4 -46 8 -117 8 -120 0
-127 -1 -116 -18z"/>
<path d="M5490 3790 l0 -90 154 0 155 0 3 84 3 84 -50 6 c-27 3 -98 6 -157 6
l-108 0 0 -90z"/>
<path d="M6993 3453 l-93 -4 0 -43 c0 -24 -3 -58 -6 -75 l-6 -31 207 0 208 0
-7 61 c-3 34 -6 70 -6 80 0 20 -26 21 -297 12z"/>
<path d="M2805 3023 c-35 -9 -87 -54 -101 -89 -18 -42 -20 -325 -3 -375 16
-47 53 -84 98 -98 23 -6 115 -11 230 -11 l191 0 0 175 0 175 -85 0 -85 0 0
-85 0 -85 -90 0 -91 0 3 113 3 112 178 3 177 2 0 85 0 85 -202 -1 c-112 -1
-212 -4 -223 -6z"/>
<path d="M3253 2759 c5 -237 8 -274 23 -290 16 -17 34 -19 226 -19 l208 0 0
90 0 90 -140 0 -140 0 0 200 0 200 -92 0 -91 0 6 -271z"/>
<path d="M3740 2950 l0 -80 100 0 100 0 0 80 0 80 -100 0 -100 0 0 -80z"/>
<path d="M3970 2940 l0 -90 75 0 75 0 0 -200 0 -200 85 0 85 0 0 199 0 199 80
7 80 7 0 84 0 84 -240 0 -240 0 0 -90z"/>
<path d="M4610 3021 c-8 -6 -17 -8 -22 -5 -4 3 -25 -13 -46 -34 -50 -50 -57
-81 -53 -262 3 -179 17 -220 83 -250 38 -17 66 -20 241 -20 l197 0 0 90 0 90
-170 0 -170 0 0 110 0 110 168 2 167 3 3 88 3 87 -193 0 c-106 0 -200 -4 -208
-9z"/>
<path d="M5030 2740 l1 -290 85 0 84 0 0 105 0 105 69 0 69 0 6 -82 c4 -46 5
-92 4 -103 -3 -18 4 -20 85 -23 l87 -3 0 291 0 290 -90 0 -90 0 0 -95 0 -95
-70 0 -70 0 0 95 0 95 -85 0 -86 0 1 -290z"/>
<path d="M5690 2740 l0 -290 273 0 c252 0 274 1 304 20 90 55 95 210 10 289
-25 22 -25 25 -9 37 26 19 24 144 -3 174 -47 53 -81 59 -337 60 l-238 1 0
-291z m413 113 c4 -3 3 -11 -4 -19 -8 -10 -37 -14 -106 -14 l-94 0 3 -77 3
-78 133 -3 c108 -2 132 -5 132 -17 0 -13 -25 -15 -150 -15 l-150 0 0 108 c0
60 3 112 7 116 8 8 213 7 226 -1z"/>
<path d="M6484 3011 c-23 -10 -52 -34 -65 -52 -23 -33 -24 -40 -24 -221 l0
-186 31 -39 c42 -52 79 -60 266 -62 212 -2 253 10 292 86 13 26 16 65 16 203
0 198 -9 229 -78 268 -37 21 -52 22 -218 22 -153 0 -185 -3 -220 -19z m344
-268 l-3 -108 -127 -3 -128 -3 0 111 0 110 130 0 131 0 -3 -107z"/>
<path d="M7078 2863 c-4 -341 -4 -388 0 -400 3 -9 29 -13 87 -13 l82 0 6 113
c4 61 7 192 7 290 l0 177 -90 0 -90 0 -2 -167z"/>
<path d="M3740 2643 l0 -193 84 0 84 0 1 196 2 196 -85 -4 -86 -3 0 -192z"/>
</g>
</svg>
